<?xml version="1.0" encoding="UTF-8"?>
<!DOCTYPE svg PUBLIC "-//W3C//DTD SVG 1.1//EN" "http://www.w3.org/Graphics/SVG/1.1/DTD/svg11.dtd">
<!-- Creator: CorelDRAW 2020 (64-Bit) -->
<svg xmlns="http://www.w3.org/2000/svg" xml:space="preserve" width="5.5248mm" height="4.9315mm" version="1.1" style="shape-rendering:geometricPrecision; text-rendering:geometricPrecision; image-rendering:optimizeQuality; fill-rule:evenodd; clip-rule:evenodd"
viewBox="0 0 75.75 67.62"
 xmlns:xlink="http://www.w3.org/1999/xlink"
 xmlns:xodm="http://www.corel.com/coreldraw/odm/2003">
 <defs>
  <style type="text/css">
   <![CDATA[
    .str0 {stroke:#4B4B4D;stroke-width:2.74;stroke-miterlimit:22.9256}
    .fil1 {fill:none}
    .fil0 {fill:#FEFEFE;fill-rule:nonzero}
   ]]>
  </style>
 </defs>
 <g id="Capa_x0020_1">
  <metadata id="CorelCorpID_0Corel-Layer"/>
  <path class="fil0 str0" d="M74.38 54.44c0,0.54 -0.61,0.89 -1.87,1.08 -0.92,0.12 -2.21,0.14 -3.86,0.06 -2.45,-0.08 -3.55,-0.12 -3.25,-0.12 -4.72,0 -7.57,-0.35 -8.52,-1.03 -3.65,-3.43 -9.19,-8.48 -16.67,-15.13 -1.44,-1.2 -2.24,-1.82 -2.42,-1.82 -0.52,0 -3.86,2.9 -10.02,8.69 -6.25,5.88 -10.05,8.9 -11.37,9.06 -1.32,0.15 -5.61,0.23 -12.87,0.23 -1.44,0 -2.17,-0.35 -2.17,-1.03l0 -6.19c0,-0.43 4.04,-3.66 12.13,-9.71 8.09,-6.04 12.16,-9.37 12.16,-9.97 0,-0.58 -4.08,-3.91 -12.16,-9.98 -8.09,-6.08 -12.13,-9.4 -12.13,-10.02l0 -6.06c0,-0.76 0.7,-1.14 2.17,-1.14 1.5,0 3.77,0.08 6.77,0.21 3.03,0.14 5.27,0.21 6.8,0.21 0.83,0 1.56,0.27 2.24,0.79 3.52,3.44 8.89,8.49 16.12,15.19 1.44,1.24 2.21,1.88 2.33,1.88 0.18,0 0.83,-0.5 1.96,-1.47 3.46,-3 9.19,-8.26 17.13,-15.83 0.58,-0.5 1.29,-0.75 2.05,-0.75 1.5,0 3.71,-0.04 6.65,-0.12 2.94,-0.08 5.11,-0.12 6.55,-0.12 1.5,0 2.24,0.39 2.24,1.14l0 5.94c0,0.68 -4.17,3.95 -12.5,9.87 -8.3,5.9 -12.47,9.15 -12.47,9.73 0,0.39 4.17,3.7 12.47,9.93 8.33,6.25 12.5,9.71 12.5,10.41l0 6.06z"/>
  <rect class="fil1" x="1.37" y="2.51" width="73.01" height="65.11"/>
 </g>
</svg>
