<?xml version="1.0" encoding="UTF-8"?>
<!DOCTYPE svg PUBLIC "-//W3C//DTD SVG 1.1//EN" "http://www.w3.org/Graphics/SVG/1.1/DTD/svg11.dtd">
<!-- Creator: CorelDRAW 2020 (64-Bit) -->
<svg xmlns="http://www.w3.org/2000/svg" xml:space="preserve" width="8.3859mm" height="8.39mm" version="1.1" style="shape-rendering:geometricPrecision; text-rendering:geometricPrecision; image-rendering:optimizeQuality; fill-rule:evenodd; clip-rule:evenodd"
viewBox="0 0 544.4 544.67"
 xmlns:xlink="http://www.w3.org/1999/xlink"
 xmlns:xodm="http://www.corel.com/coreldraw/odm/2003">
 <defs>
  <style type="text/css">
   <![CDATA[
    .fil0 {fill:#FEFEFE;fill-rule:nonzero}
   ]]>
  </style>
 </defs>
 <g id="Capa_x0020_1">
  <metadata id="CorelCorpID_0Corel-Layer"/>
  <polygon class="fil0" points="10.79,544.67 123.19,544.67 123.19,181.56 10.79,181.56 "/>
  <path class="fil0" d="M66.46 134.02c36.71,0 66.46,-30.02 66.46,-67.02 0,-37.01 -29.75,-67 -66.46,-67 -36.74,0 -66.46,29.99 -66.46,67 0,36.99 29.73,67.02 66.46,67.02z"/>
  <path class="fil0" d="M302.88 354.05c0,-51.05 23.47,-81.46 68.48,-81.46 41.31,0 61.19,29.2 61.19,81.46 0,52.3 0,190.61 0,190.61l111.85 0c0,0 0,-132.64 0,-229.92 0,-97.25 -55.12,-144.28 -132.1,-144.28 -77.02,0 -109.43,60.01 -109.43,60.01l0 -48.92 -107.82 0 0 363.11 107.82 0c0,0 0,-134.67 0,-190.61z"/>
 </g>
</svg>
