<?xml version="1.0" encoding="UTF-8"?>
<!DOCTYPE svg PUBLIC "-//W3C//DTD SVG 1.1//EN" "http://www.w3.org/Graphics/SVG/1.1/DTD/svg11.dtd">
<!-- Creator: CorelDRAW 2020 (64-Bit) -->
<svg xmlns="http://www.w3.org/2000/svg" xml:space="preserve" width="9.6191mm" height="9.619mm" version="1.1" style="shape-rendering:geometricPrecision; text-rendering:geometricPrecision; image-rendering:optimizeQuality; fill-rule:evenodd; clip-rule:evenodd"
viewBox="0 0 356.92 356.92"
 xmlns:xlink="http://www.w3.org/1999/xlink"
 xmlns:xodm="http://www.corel.com/coreldraw/odm/2003">
 <defs>
  <style type="text/css">
   <![CDATA[
    .str0 {stroke:#FEFEFE;stroke-width:7.42;stroke-miterlimit:22.9256}
    .fil0 {fill:#FEFEFE;fill-rule:nonzero}
   ]]>
  </style>
 </defs>
 <g id="Capa_x0020_1">
  <metadata id="CorelCorpID_0Corel-Layer"/>
  <path class="fil0 str0" d="M178.46 3.71c-47.46,0 -53.41,0.2 -72.06,1.05 -18.6,0.85 -31.3,3.8 -42.42,8.13 -11.49,4.46 -21.24,10.43 -30.95,20.14 -9.71,9.72 -15.68,19.48 -20.15,30.96 -4.32,11.13 -7.28,23.83 -8.12,42.41 -0.86,18.64 -1.05,24.6 -1.05,72.06 0,47.45 0.2,53.41 1.05,72.05 0.84,18.6 3.8,31.3 8.12,42.42 4.47,11.49 10.44,21.24 20.15,30.95 9.72,9.72 19.46,15.7 30.95,20.16 11.12,4.31 23.82,7.27 42.42,8.12 18.64,0.85 24.6,1.05 72.06,1.05 47.45,0 53.41,-0.2 72.05,-1.05 18.6,-0.85 31.3,-3.81 42.42,-8.12 11.49,-4.46 21.24,-10.44 30.95,-20.16 9.72,-9.71 15.68,-19.46 20.16,-30.95 4.32,-11.12 7.27,-23.81 8.12,-42.42 0.85,-18.64 1.05,-24.6 1.05,-72.05 0,-47.46 -0.2,-53.41 -1.05,-72.06 -0.85,-18.59 -3.8,-31.28 -8.12,-42.41 -4.47,-11.48 -10.44,-21.24 -20.16,-30.96 -9.71,-9.71 -19.46,-15.68 -30.95,-20.14 -11.12,-4.33 -23.82,-7.28 -42.42,-8.13 -18.64,-0.85 -24.6,-1.05 -72.05,-1.05zm0 31.49c46.66,0 52.19,0.18 70.61,1.01 17.03,0.78 26.29,3.63 32.45,6.02 8.16,3.17 13.98,6.96 20.09,13.08 6.11,6.11 9.91,11.93 13.08,20.09 2.39,6.15 5.24,15.41 6.03,32.44 0.83,18.43 1.01,23.95 1.01,70.62 0,46.66 -0.18,52.19 -1.01,70.62 -0.78,17.04 -3.63,26.29 -6.03,32.45 -3.17,8.17 -6.96,13.98 -13.08,20.1 -6.11,6.1 -11.93,9.89 -20.09,13.06 -6.16,2.39 -15.42,5.24 -32.45,6.02 -18.43,0.83 -23.95,1.02 -70.61,1.02 -46.67,0 -52.19,-0.19 -70.62,-1.02 -17.05,-0.78 -26.29,-3.63 -32.45,-6.02 -8.16,-3.17 -13.98,-6.96 -20.1,-13.06 -6.11,-6.13 -9.9,-11.93 -13.08,-20.1 -2.39,-6.16 -5.23,-15.4 -6.01,-32.45 -0.84,-18.43 -1.01,-23.95 -1.01,-70.62 0,-46.66 0.17,-52.19 1.01,-70.62 0.78,-17.03 3.63,-26.29 6.01,-32.44 3.17,-8.16 6.96,-13.98 13.08,-20.09 6.11,-6.11 11.94,-9.91 20.1,-13.08 6.16,-2.39 15.4,-5.24 32.45,-6.02 18.42,-0.83 23.95,-1.01 70.62,-1.01z"/>
  <path class="fil0 str0" d="M178.46 235.19c-31.34,0 -56.73,-25.4 -56.73,-56.73 0,-31.34 25.4,-56.73 56.73,-56.73 31.34,0 56.73,25.4 56.73,56.73 0,31.34 -25.4,56.73 -56.73,56.73zm0 -144.12c-48.26,0 -87.4,39.13 -87.4,87.39 0,48.27 39.14,87.4 87.4,87.4 48.26,0 87.4,-39.13 87.4,-87.4 0,-48.26 -39.14,-87.39 -87.4,-87.39z"/>
  <path class="fil0 str0" d="M289.74 87.61c0,11.27 -9.15,20.42 -20.42,20.42 -11.28,0 -20.43,-9.15 -20.43,-20.42 0,-11.28 9.15,-20.43 20.43,-20.43 11.27,0 20.42,9.15 20.42,20.43z"/>
 </g>
</svg>
