<?xml version="1.0" encoding="UTF-8"?>
<!DOCTYPE svg PUBLIC "-//W3C//DTD SVG 1.1//EN" "http://www.w3.org/Graphics/SVG/1.1/DTD/svg11.dtd">
<!-- Creator: CorelDRAW 2020 (64-Bit) -->
<svg xmlns="http://www.w3.org/2000/svg" xml:space="preserve" width="9.0748mm" height="10.429mm" version="1.1" style="shape-rendering:geometricPrecision; text-rendering:geometricPrecision; image-rendering:optimizeQuality; fill-rule:evenodd; clip-rule:evenodd"
viewBox="0 0 150.2 172.61"
 xmlns:xlink="http://www.w3.org/1999/xlink"
 xmlns:xodm="http://www.corel.com/coreldraw/odm/2003">
 <defs>
  <style type="text/css">
   <![CDATA[
    .fil0 {fill:#FEFEFE}
   ]]>
  </style>
 </defs>
 <g id="Capa_x0020_1">
  <metadata id="CorelCorpID_0Corel-Layer"/>
  <path class="fil0" d="M-0 43.26l0 85.51c0.96,1.27 14.87,9.32 16.64,9.96l0.03 -86.44c17.39,-9.5 35.19,-20.51 52.7,-30.37 6.9,-3.88 3.95,-4.49 21.31,5.94 1.84,1.1 3.52,1.96 5.39,3.07 2.19,1.29 4,1.97 5.27,3.6 -2.62,0.9 -32.25,18.4 -35.41,20.23l-26.48 15.29c-10.68,6.04 -8.57,1.49 -8.46,21.93l0.02 2 103.49 -59.59c-1.04,-1.51 -5.92,-3.9 -7.97,-5.09l-42.21 -24.4c-10.57,-6.16 -7.53,-6.56 -17.08,-1 -11.25,6.54 -22.58,12.83 -33.69,19.5 -4.44,2.66 -32,17.82 -33.56,19.86zm58.95 51.31l-0.11 68.01c0.34,1.47 15.22,9.5 16.66,10.03l0 -68.12 57.54 -33.26 0.13 15.78c-0.41,1.21 -38.45,22.49 -43.29,25.52l0 19.04c2.15,-0.8 5.37,-2.88 7.45,-4.12 1.21,-0.72 6.72,-4.12 7.59,-4.4 2.07,-0.68 5.9,2.3 7.94,3.46 2.45,1.4 4.98,2.93 7.55,4.38 2.74,1.54 5.04,2.84 7.58,4.36 7.22,4.33 4.28,4 14.93,-1.97 1.85,-1.03 5.83,-3.08 7.27,-4.36 -4.24,-2.67 -9.06,-5.41 -13.46,-7.88 -2.67,-1.5 -12.22,-6.67 -13.71,-8.17 1.54,-1.52 10.82,-6.53 13.4,-7.98 2.19,-1.23 12.63,-6.74 13.42,-8.43l-0.01 -54.21 -90.89 52.32z"/>
 </g>
</svg>
